# xmcd
#
# Track frame offsets: 
#        150
#        15553
#        32142
#        47211
#        64116
#        81613
#        101370
#        117267
#        142032
#        157009
#        175266
#        189515
#        205316
#        222535
#        240142
#        265161
#        283630
#        298871
#        311838
#
# Disc length: 4385 seconds
#
# Revision: 0
# Processed by: cddbd v1.5.2PL0 Copyright (c) Steve Scherf et al.
# Submitted via: ExactAudioCopy v0.95b4
#
DISCID=23111f13
DTITLE=Camilo Sesto - Los Grandes Exitos
DYEAR=2000
DGENRE=Latin
TTITLE0=Que Mas Te Da
TTITLE1=Quieres Ser Mi Amante
TTITLE2=Si Tu Te Vas
TTITLE3=Vivir Asi es Morir de Amor
TTITLE4=La Culpa ha Sido Mia
TTITLE5=Donde Estes, Con Quien Estes
TTITLE6=Piel de Angel
TTITLE7=Callados
TTITLE8=Jamas, Jamas
TTITLE9=Amor, Amar
TTITLE10=Con el Viento a Tu Favor
TTITLE11=Amor No Me Ignores
TTITLE12=Solo Tú
TTITLE13=Perdoname
TTITLE14=El Amor de Mi Vida
TTITLE15=Algo de Mi
TTITLE16=Mi Mundo Tú
TTITLE17=Melina
TTITLE18=Vivir Sin Tí
EXTD=
EXTT0=
EXTT1=
EXTT2=
EXTT3=
EXTT4=
EXTT5=
EXTT6=
EXTT7=
EXTT8=
EXTT9=
EXTT10=
EXTT11=
EXTT12=
EXTT13=
EXTT14=
EXTT15=
EXTT16=
EXTT17=
EXTT18=
PLAYORDER=
